<mxfile host="app.diagrams.net" modified="2022-02-14T19:37:45.566Z" agent="5.0 (Windows NT 10.0; Win64; x64) AppleWebKit/537.36 (KHTML, like Gecko) Chrome/98.0.4758.82 Safari/537.36" etag="YJMOLum6lvY_sD7mb6bm" version="16.5.6" type="github">
  <diagram id="t6akrrL4qm9jTMgIvsn8" name="Page-1">
    <mxGraphModel dx="2946" dy="1603" grid="1" gridSize="10" guides="1" tooltips="1" connect="1" arrows="1" fold="1" page="1" pageScale="1" pageWidth="827" pageHeight="1169" math="0" shadow="0">
      <root>
        <mxCell id="0" />
        <mxCell id="1" parent="0" />
        <mxCell id="6nLnpNQeCBj-sCMpRCvX-1" value="User" style="whiteSpace=wrap;html=1;align=center;" vertex="1" parent="1">
          <mxGeometry x="130" y="130" width="100" height="40" as="geometry" />
        </mxCell>
        <mxCell id="6nLnpNQeCBj-sCMpRCvX-2" value="UserRoles" style="shape=rhombus;perimeter=rhombusPerimeter;whiteSpace=wrap;html=1;align=center;" vertex="1" parent="1">
          <mxGeometry x="360" y="120" width="120" height="60" as="geometry" />
        </mxCell>
        <mxCell id="6nLnpNQeCBj-sCMpRCvX-3" value="Role" style="whiteSpace=wrap;html=1;align=center;" vertex="1" parent="1">
          <mxGeometry x="590" y="130" width="100" height="40" as="geometry" />
        </mxCell>
        <mxCell id="6nLnpNQeCBj-sCMpRCvX-6" value="" style="shape=link;html=1;rounded=0;exitX=1;exitY=0.5;exitDx=0;exitDy=0;entryX=0;entryY=0.5;entryDx=0;entryDy=0;" edge="1" parent="1" source="6nLnpNQeCBj-sCMpRCvX-1" target="6nLnpNQeCBj-sCMpRCvX-2">
          <mxGeometry relative="1" as="geometry">
            <mxPoint x="360" y="530" as="sourcePoint" />
            <mxPoint x="520" y="530" as="targetPoint" />
          </mxGeometry>
        </mxCell>
        <mxCell id="6nLnpNQeCBj-sCMpRCvX-7" value="N" style="resizable=0;html=1;align=right;verticalAlign=bottom;" connectable="0" vertex="1" parent="6nLnpNQeCBj-sCMpRCvX-6">
          <mxGeometry x="1" relative="1" as="geometry">
            <mxPoint x="-3" y="-3" as="offset" />
          </mxGeometry>
        </mxCell>
        <mxCell id="6nLnpNQeCBj-sCMpRCvX-10" value="" style="endArrow=none;html=1;rounded=0;exitX=0;exitY=0.5;exitDx=0;exitDy=0;entryX=1;entryY=0.5;entryDx=0;entryDy=0;" edge="1" parent="1" source="6nLnpNQeCBj-sCMpRCvX-3" target="6nLnpNQeCBj-sCMpRCvX-2">
          <mxGeometry relative="1" as="geometry">
            <mxPoint x="360" y="530" as="sourcePoint" />
            <mxPoint x="520" y="530" as="targetPoint" />
          </mxGeometry>
        </mxCell>
        <mxCell id="6nLnpNQeCBj-sCMpRCvX-11" value="N" style="resizable=0;html=1;align=right;verticalAlign=bottom;" connectable="0" vertex="1" parent="6nLnpNQeCBj-sCMpRCvX-10">
          <mxGeometry x="1" relative="1" as="geometry">
            <mxPoint x="5" y="-3" as="offset" />
          </mxGeometry>
        </mxCell>
        <mxCell id="6nLnpNQeCBj-sCMpRCvX-12" value="School" style="whiteSpace=wrap;html=1;align=center;" vertex="1" parent="1">
          <mxGeometry x="590" y="320" width="100" height="40" as="geometry" />
        </mxCell>
        <mxCell id="6nLnpNQeCBj-sCMpRCvX-13" value="Post" style="whiteSpace=wrap;html=1;align=center;" vertex="1" parent="1">
          <mxGeometry x="130" y="465" width="100" height="40" as="geometry" />
        </mxCell>
        <mxCell id="6nLnpNQeCBj-sCMpRCvX-14" value="Favourites" style="whiteSpace=wrap;html=1;align=center;" vertex="1" parent="1">
          <mxGeometry x="380" y="730" width="100" height="40" as="geometry" />
        </mxCell>
        <mxCell id="6nLnpNQeCBj-sCMpRCvX-15" value="images" style="ellipse;shape=doubleEllipse;margin=3;whiteSpace=wrap;html=1;align=center;" vertex="1" parent="1">
          <mxGeometry x="10" y="492.5" width="100" height="40" as="geometry" />
        </mxCell>
        <mxCell id="6nLnpNQeCBj-sCMpRCvX-17" value="Id" style="ellipse;whiteSpace=wrap;html=1;align=center;fontStyle=4;" vertex="1" parent="1">
          <mxGeometry x="10" y="392.5" width="100" height="40" as="geometry" />
        </mxCell>
        <mxCell id="6nLnpNQeCBj-sCMpRCvX-19" value="title" style="ellipse;whiteSpace=wrap;html=1;align=center;" vertex="1" parent="1">
          <mxGeometry x="10" y="537.5" width="100" height="40" as="geometry" />
        </mxCell>
        <mxCell id="6nLnpNQeCBj-sCMpRCvX-20" value="description" style="ellipse;whiteSpace=wrap;html=1;align=center;" vertex="1" parent="1">
          <mxGeometry x="10" y="442.5" width="100" height="40" as="geometry" />
        </mxCell>
        <mxCell id="6nLnpNQeCBj-sCMpRCvX-21" style="edgeStyle=orthogonalEdgeStyle;rounded=0;orthogonalLoop=1;jettySize=auto;html=1;exitX=0.5;exitY=1;exitDx=0;exitDy=0;" edge="1" parent="1" source="6nLnpNQeCBj-sCMpRCvX-15" target="6nLnpNQeCBj-sCMpRCvX-15">
          <mxGeometry relative="1" as="geometry" />
        </mxCell>
        <mxCell id="6nLnpNQeCBj-sCMpRCvX-22" value="Course" style="shape=ext;margin=3;double=1;whiteSpace=wrap;html=1;align=center;" vertex="1" parent="1">
          <mxGeometry x="590" y="560" width="100" height="40" as="geometry" />
        </mxCell>
        <mxCell id="6nLnpNQeCBj-sCMpRCvX-23" value="&lt;span style=&quot;border-bottom: 1px dotted&quot;&gt;schoolID&lt;/span&gt;" style="ellipse;whiteSpace=wrap;html=1;align=center;" vertex="1" parent="1">
          <mxGeometry x="710" y="505" width="100" height="40" as="geometry" />
        </mxCell>
        <mxCell id="6nLnpNQeCBj-sCMpRCvX-24" value="&lt;span style=&quot;border-bottom: 1px dotted&quot;&gt;Id&lt;/span&gt;" style="ellipse;whiteSpace=wrap;html=1;align=center;" vertex="1" parent="1">
          <mxGeometry x="710" y="560" width="100" height="40" as="geometry" />
        </mxCell>
        <mxCell id="6nLnpNQeCBj-sCMpRCvX-25" value="name" style="ellipse;whiteSpace=wrap;html=1;align=center;" vertex="1" parent="1">
          <mxGeometry x="709" y="617" width="100" height="40" as="geometry" />
        </mxCell>
        <mxCell id="6nLnpNQeCBj-sCMpRCvX-26" value="Id" style="ellipse;whiteSpace=wrap;html=1;align=center;fontStyle=4;" vertex="1" parent="1">
          <mxGeometry x="720" y="320" width="100" height="40" as="geometry" />
        </mxCell>
        <mxCell id="6nLnpNQeCBj-sCMpRCvX-27" value="name" style="ellipse;whiteSpace=wrap;html=1;align=center;" vertex="1" parent="1">
          <mxGeometry x="720" y="270" width="100" height="40" as="geometry" />
        </mxCell>
        <mxCell id="6nLnpNQeCBj-sCMpRCvX-28" value="emailDomain" style="ellipse;whiteSpace=wrap;html=1;align=center;" vertex="1" parent="1">
          <mxGeometry x="720" y="370" width="100" height="40" as="geometry" />
        </mxCell>
        <mxCell id="6nLnpNQeCBj-sCMpRCvX-29" value="Id" style="ellipse;whiteSpace=wrap;html=1;align=center;fontStyle=4;" vertex="1" parent="1">
          <mxGeometry x="130" y="60" width="100" height="40" as="geometry" />
        </mxCell>
        <mxCell id="6nLnpNQeCBj-sCMpRCvX-31" value="email" style="ellipse;whiteSpace=wrap;html=1;align=center;" vertex="1" parent="1">
          <mxGeometry x="10" y="80" width="100" height="40" as="geometry" />
        </mxCell>
        <mxCell id="6nLnpNQeCBj-sCMpRCvX-32" value="userName" style="ellipse;whiteSpace=wrap;html=1;align=center;" vertex="1" parent="1">
          <mxGeometry x="10" y="130" width="100" height="40" as="geometry" />
        </mxCell>
        <mxCell id="6nLnpNQeCBj-sCMpRCvX-33" value="passwordHash" style="ellipse;whiteSpace=wrap;html=1;align=center;" vertex="1" parent="1">
          <mxGeometry x="10" y="180" width="100" height="40" as="geometry" />
        </mxCell>
        <mxCell id="6nLnpNQeCBj-sCMpRCvX-34" value="Id" style="ellipse;whiteSpace=wrap;html=1;align=center;fontStyle=4;" vertex="1" parent="1">
          <mxGeometry x="590" y="60" width="100" height="40" as="geometry" />
        </mxCell>
        <mxCell id="6nLnpNQeCBj-sCMpRCvX-35" value="name" style="ellipse;whiteSpace=wrap;html=1;align=center;" vertex="1" parent="1">
          <mxGeometry x="720" y="130" width="100" height="40" as="geometry" />
        </mxCell>
        <mxCell id="6nLnpNQeCBj-sCMpRCvX-36" value="" style="endArrow=none;html=1;rounded=0;exitX=0.5;exitY=0;exitDx=0;exitDy=0;entryX=0.5;entryY=1;entryDx=0;entryDy=0;" edge="1" parent="1" source="6nLnpNQeCBj-sCMpRCvX-3" target="6nLnpNQeCBj-sCMpRCvX-34">
          <mxGeometry relative="1" as="geometry">
            <mxPoint x="480" y="510" as="sourcePoint" />
            <mxPoint x="640" y="510" as="targetPoint" />
          </mxGeometry>
        </mxCell>
        <mxCell id="6nLnpNQeCBj-sCMpRCvX-37" value="" style="endArrow=none;html=1;rounded=0;exitX=1;exitY=0.5;exitDx=0;exitDy=0;entryX=0;entryY=0.5;entryDx=0;entryDy=0;" edge="1" parent="1" source="6nLnpNQeCBj-sCMpRCvX-3" target="6nLnpNQeCBj-sCMpRCvX-35">
          <mxGeometry relative="1" as="geometry">
            <mxPoint x="480" y="510" as="sourcePoint" />
            <mxPoint x="640" y="510" as="targetPoint" />
          </mxGeometry>
        </mxCell>
        <mxCell id="6nLnpNQeCBj-sCMpRCvX-38" value="" style="endArrow=none;html=1;rounded=0;exitX=0.5;exitY=1;exitDx=0;exitDy=0;entryX=0.5;entryY=0;entryDx=0;entryDy=0;" edge="1" parent="1" source="6nLnpNQeCBj-sCMpRCvX-29" target="6nLnpNQeCBj-sCMpRCvX-1">
          <mxGeometry relative="1" as="geometry">
            <mxPoint x="480" y="510" as="sourcePoint" />
            <mxPoint x="640" y="510" as="targetPoint" />
          </mxGeometry>
        </mxCell>
        <mxCell id="6nLnpNQeCBj-sCMpRCvX-39" value="" style="endArrow=none;html=1;rounded=0;exitX=1;exitY=0.5;exitDx=0;exitDy=0;entryX=0;entryY=0.25;entryDx=0;entryDy=0;" edge="1" parent="1" source="6nLnpNQeCBj-sCMpRCvX-31" target="6nLnpNQeCBj-sCMpRCvX-1">
          <mxGeometry relative="1" as="geometry">
            <mxPoint x="480" y="510" as="sourcePoint" />
            <mxPoint x="640" y="510" as="targetPoint" />
          </mxGeometry>
        </mxCell>
        <mxCell id="6nLnpNQeCBj-sCMpRCvX-40" value="" style="endArrow=none;html=1;rounded=0;exitX=1;exitY=0.5;exitDx=0;exitDy=0;entryX=0;entryY=0.5;entryDx=0;entryDy=0;" edge="1" parent="1" source="6nLnpNQeCBj-sCMpRCvX-32" target="6nLnpNQeCBj-sCMpRCvX-1">
          <mxGeometry relative="1" as="geometry">
            <mxPoint x="480" y="510" as="sourcePoint" />
            <mxPoint x="640" y="510" as="targetPoint" />
          </mxGeometry>
        </mxCell>
        <mxCell id="6nLnpNQeCBj-sCMpRCvX-41" value="" style="endArrow=none;html=1;rounded=0;exitX=1;exitY=0.5;exitDx=0;exitDy=0;entryX=0;entryY=0.75;entryDx=0;entryDy=0;" edge="1" parent="1" source="6nLnpNQeCBj-sCMpRCvX-33" target="6nLnpNQeCBj-sCMpRCvX-1">
          <mxGeometry relative="1" as="geometry">
            <mxPoint x="480" y="510" as="sourcePoint" />
            <mxPoint x="640" y="510" as="targetPoint" />
          </mxGeometry>
        </mxCell>
        <mxCell id="6nLnpNQeCBj-sCMpRCvX-42" value="UserPosts" style="shape=rhombus;perimeter=rhombusPerimeter;whiteSpace=wrap;html=1;align=center;" vertex="1" parent="1">
          <mxGeometry x="120" y="280" width="120" height="60" as="geometry" />
        </mxCell>
        <mxCell id="6nLnpNQeCBj-sCMpRCvX-48" value="" style="endArrow=none;html=1;rounded=0;exitX=0.5;exitY=1;exitDx=0;exitDy=0;entryX=0.5;entryY=0;entryDx=0;entryDy=0;" edge="1" parent="1" source="6nLnpNQeCBj-sCMpRCvX-1" target="6nLnpNQeCBj-sCMpRCvX-42">
          <mxGeometry relative="1" as="geometry">
            <mxPoint x="480" y="510" as="sourcePoint" />
            <mxPoint x="640" y="510" as="targetPoint" />
          </mxGeometry>
        </mxCell>
        <mxCell id="6nLnpNQeCBj-sCMpRCvX-49" value="1" style="resizable=0;html=1;align=right;verticalAlign=bottom;" connectable="0" vertex="1" parent="6nLnpNQeCBj-sCMpRCvX-48">
          <mxGeometry x="1" relative="1" as="geometry">
            <mxPoint x="-6" y="-3" as="offset" />
          </mxGeometry>
        </mxCell>
        <mxCell id="6nLnpNQeCBj-sCMpRCvX-50" value="" style="endArrow=none;html=1;rounded=0;exitX=0.5;exitY=0;exitDx=0;exitDy=0;entryX=0.5;entryY=1;entryDx=0;entryDy=0;" edge="1" parent="1" source="6nLnpNQeCBj-sCMpRCvX-13" target="6nLnpNQeCBj-sCMpRCvX-42">
          <mxGeometry relative="1" as="geometry">
            <mxPoint x="480" y="510" as="sourcePoint" />
            <mxPoint x="640" y="510" as="targetPoint" />
          </mxGeometry>
        </mxCell>
        <mxCell id="6nLnpNQeCBj-sCMpRCvX-51" value="N" style="resizable=0;html=1;align=right;verticalAlign=bottom;" connectable="0" vertex="1" parent="6nLnpNQeCBj-sCMpRCvX-50">
          <mxGeometry x="1" relative="1" as="geometry">
            <mxPoint x="-6" y="15" as="offset" />
          </mxGeometry>
        </mxCell>
        <mxCell id="6nLnpNQeCBj-sCMpRCvX-52" value="Category" style="whiteSpace=wrap;html=1;align=center;" vertex="1" parent="1">
          <mxGeometry x="130" y="730" width="100" height="40" as="geometry" />
        </mxCell>
        <mxCell id="6nLnpNQeCBj-sCMpRCvX-54" value="" style="endArrow=none;html=1;rounded=0;entryX=1;entryY=0.5;entryDx=0;entryDy=0;exitX=0;exitY=0;exitDx=0;exitDy=0;" edge="1" parent="1" source="6nLnpNQeCBj-sCMpRCvX-13" target="6nLnpNQeCBj-sCMpRCvX-17">
          <mxGeometry relative="1" as="geometry">
            <mxPoint x="150" y="400" as="sourcePoint" />
            <mxPoint x="640" y="510" as="targetPoint" />
          </mxGeometry>
        </mxCell>
        <mxCell id="6nLnpNQeCBj-sCMpRCvX-55" value="" style="endArrow=none;html=1;rounded=0;exitX=1;exitY=0.5;exitDx=0;exitDy=0;entryX=0;entryY=0.75;entryDx=0;entryDy=0;" edge="1" parent="1" source="6nLnpNQeCBj-sCMpRCvX-15" target="6nLnpNQeCBj-sCMpRCvX-13">
          <mxGeometry relative="1" as="geometry">
            <mxPoint x="480" y="510" as="sourcePoint" />
            <mxPoint x="120" y="488" as="targetPoint" />
          </mxGeometry>
        </mxCell>
        <mxCell id="6nLnpNQeCBj-sCMpRCvX-56" value="" style="endArrow=none;html=1;rounded=0;exitX=1;exitY=0.5;exitDx=0;exitDy=0;entryX=0;entryY=0.25;entryDx=0;entryDy=0;" edge="1" parent="1" source="6nLnpNQeCBj-sCMpRCvX-20" target="6nLnpNQeCBj-sCMpRCvX-13">
          <mxGeometry relative="1" as="geometry">
            <mxPoint x="260" y="500" as="sourcePoint" />
            <mxPoint x="420" y="500" as="targetPoint" />
          </mxGeometry>
        </mxCell>
        <mxCell id="6nLnpNQeCBj-sCMpRCvX-57" value="" style="endArrow=none;html=1;rounded=0;exitX=1;exitY=0.5;exitDx=0;exitDy=0;entryX=0;entryY=1;entryDx=0;entryDy=0;" edge="1" parent="1" source="6nLnpNQeCBj-sCMpRCvX-19" target="6nLnpNQeCBj-sCMpRCvX-13">
          <mxGeometry relative="1" as="geometry">
            <mxPoint x="260" y="500" as="sourcePoint" />
            <mxPoint x="130" y="530" as="targetPoint" />
          </mxGeometry>
        </mxCell>
        <mxCell id="6nLnpNQeCBj-sCMpRCvX-58" value="Attends" style="shape=rhombus;perimeter=rhombusPerimeter;whiteSpace=wrap;html=1;align=center;" vertex="1" parent="1">
          <mxGeometry x="360" y="230" width="120" height="60" as="geometry" />
        </mxCell>
        <mxCell id="6nLnpNQeCBj-sCMpRCvX-59" value="" style="shape=link;html=1;rounded=0;exitX=1;exitY=1;exitDx=0;exitDy=0;entryX=0;entryY=0.5;entryDx=0;entryDy=0;" edge="1" parent="1" source="6nLnpNQeCBj-sCMpRCvX-1" target="6nLnpNQeCBj-sCMpRCvX-58">
          <mxGeometry relative="1" as="geometry">
            <mxPoint x="660" y="540" as="sourcePoint" />
            <mxPoint x="820" y="540" as="targetPoint" />
          </mxGeometry>
        </mxCell>
        <mxCell id="6nLnpNQeCBj-sCMpRCvX-60" value="N" style="resizable=0;html=1;align=right;verticalAlign=bottom;" connectable="0" vertex="1" parent="6nLnpNQeCBj-sCMpRCvX-59">
          <mxGeometry x="1" relative="1" as="geometry">
            <mxPoint x="3" y="-5" as="offset" />
          </mxGeometry>
        </mxCell>
        <mxCell id="6nLnpNQeCBj-sCMpRCvX-61" value="" style="endArrow=none;html=1;rounded=0;entryX=1;entryY=0.5;entryDx=0;entryDy=0;exitX=0;exitY=0;exitDx=0;exitDy=0;" edge="1" parent="1" source="6nLnpNQeCBj-sCMpRCvX-12" target="6nLnpNQeCBj-sCMpRCvX-58">
          <mxGeometry relative="1" as="geometry">
            <mxPoint x="660" y="540" as="sourcePoint" />
            <mxPoint x="820" y="540" as="targetPoint" />
          </mxGeometry>
        </mxCell>
        <mxCell id="6nLnpNQeCBj-sCMpRCvX-62" value="1" style="resizable=0;html=1;align=right;verticalAlign=bottom;" connectable="0" vertex="1" parent="6nLnpNQeCBj-sCMpRCvX-61">
          <mxGeometry x="1" relative="1" as="geometry" />
        </mxCell>
        <mxCell id="6nLnpNQeCBj-sCMpRCvX-63" value="" style="endArrow=none;html=1;rounded=0;exitX=1;exitY=0.5;exitDx=0;exitDy=0;entryX=0;entryY=0.5;entryDx=0;entryDy=0;" edge="1" parent="1" source="6nLnpNQeCBj-sCMpRCvX-12" target="6nLnpNQeCBj-sCMpRCvX-26">
          <mxGeometry relative="1" as="geometry">
            <mxPoint x="740" y="540" as="sourcePoint" />
            <mxPoint x="900" y="540" as="targetPoint" />
          </mxGeometry>
        </mxCell>
        <mxCell id="6nLnpNQeCBj-sCMpRCvX-64" value="" style="endArrow=none;html=1;rounded=0;exitX=1;exitY=0.25;exitDx=0;exitDy=0;entryX=0;entryY=0.5;entryDx=0;entryDy=0;" edge="1" parent="1" source="6nLnpNQeCBj-sCMpRCvX-12" target="6nLnpNQeCBj-sCMpRCvX-27">
          <mxGeometry relative="1" as="geometry">
            <mxPoint x="780" y="540" as="sourcePoint" />
            <mxPoint x="940" y="540" as="targetPoint" />
          </mxGeometry>
        </mxCell>
        <mxCell id="6nLnpNQeCBj-sCMpRCvX-65" value="" style="endArrow=none;html=1;rounded=0;exitX=1;exitY=0.75;exitDx=0;exitDy=0;entryX=0;entryY=0.5;entryDx=0;entryDy=0;" edge="1" parent="1" source="6nLnpNQeCBj-sCMpRCvX-12" target="6nLnpNQeCBj-sCMpRCvX-28">
          <mxGeometry relative="1" as="geometry">
            <mxPoint x="780" y="540" as="sourcePoint" />
            <mxPoint x="940" y="540" as="targetPoint" />
          </mxGeometry>
        </mxCell>
        <mxCell id="6nLnpNQeCBj-sCMpRCvX-67" value="Has" style="shape=rhombus;double=1;perimeter=rhombusPerimeter;whiteSpace=wrap;html=1;align=center;" vertex="1" parent="1">
          <mxGeometry x="580" y="430" width="120" height="60" as="geometry" />
        </mxCell>
        <mxCell id="6nLnpNQeCBj-sCMpRCvX-72" value="" style="shape=link;html=1;rounded=0;exitX=0.5;exitY=0;exitDx=0;exitDy=0;entryX=0.5;entryY=1;entryDx=0;entryDy=0;" edge="1" parent="1" source="6nLnpNQeCBj-sCMpRCvX-22" target="6nLnpNQeCBj-sCMpRCvX-67">
          <mxGeometry relative="1" as="geometry">
            <mxPoint x="860" y="480" as="sourcePoint" />
            <mxPoint x="1020" y="480" as="targetPoint" />
          </mxGeometry>
        </mxCell>
        <mxCell id="6nLnpNQeCBj-sCMpRCvX-73" value="N" style="resizable=0;html=1;align=right;verticalAlign=bottom;" connectable="0" vertex="1" parent="6nLnpNQeCBj-sCMpRCvX-72">
          <mxGeometry x="1" relative="1" as="geometry">
            <mxPoint x="-6" y="14" as="offset" />
          </mxGeometry>
        </mxCell>
        <mxCell id="6nLnpNQeCBj-sCMpRCvX-74" value="" style="endArrow=none;html=1;rounded=0;exitX=0.5;exitY=1;exitDx=0;exitDy=0;entryX=0.5;entryY=0;entryDx=0;entryDy=0;" edge="1" parent="1" source="6nLnpNQeCBj-sCMpRCvX-12" target="6nLnpNQeCBj-sCMpRCvX-67">
          <mxGeometry relative="1" as="geometry">
            <mxPoint x="860" y="480" as="sourcePoint" />
            <mxPoint x="1020" y="480" as="targetPoint" />
          </mxGeometry>
        </mxCell>
        <mxCell id="6nLnpNQeCBj-sCMpRCvX-75" value="1" style="resizable=0;html=1;align=right;verticalAlign=bottom;" connectable="0" vertex="1" parent="6nLnpNQeCBj-sCMpRCvX-74">
          <mxGeometry x="1" relative="1" as="geometry">
            <mxPoint x="-6" as="offset" />
          </mxGeometry>
        </mxCell>
        <mxCell id="6nLnpNQeCBj-sCMpRCvX-76" value="" style="endArrow=none;html=1;rounded=0;exitX=1;exitY=0.5;exitDx=0;exitDy=0;entryX=0;entryY=0.5;entryDx=0;entryDy=0;" edge="1" parent="1" source="6nLnpNQeCBj-sCMpRCvX-22" target="6nLnpNQeCBj-sCMpRCvX-24">
          <mxGeometry relative="1" as="geometry">
            <mxPoint x="830" y="560" as="sourcePoint" />
            <mxPoint x="700" y="580" as="targetPoint" />
          </mxGeometry>
        </mxCell>
        <mxCell id="6nLnpNQeCBj-sCMpRCvX-77" value="" style="endArrow=none;html=1;rounded=0;exitX=1;exitY=0.25;exitDx=0;exitDy=0;entryX=0;entryY=0.5;entryDx=0;entryDy=0;" edge="1" parent="1" source="6nLnpNQeCBj-sCMpRCvX-22" target="6nLnpNQeCBj-sCMpRCvX-23">
          <mxGeometry relative="1" as="geometry">
            <mxPoint x="830" y="520" as="sourcePoint" />
            <mxPoint x="990" y="520" as="targetPoint" />
          </mxGeometry>
        </mxCell>
        <mxCell id="6nLnpNQeCBj-sCMpRCvX-78" value="" style="endArrow=none;html=1;rounded=0;exitX=1;exitY=0.75;exitDx=0;exitDy=0;entryX=0;entryY=0.5;entryDx=0;entryDy=0;" edge="1" parent="1" source="6nLnpNQeCBj-sCMpRCvX-22" target="6nLnpNQeCBj-sCMpRCvX-25">
          <mxGeometry relative="1" as="geometry">
            <mxPoint x="830" y="520" as="sourcePoint" />
            <mxPoint x="990" y="520" as="targetPoint" />
          </mxGeometry>
        </mxCell>
        <mxCell id="6nLnpNQeCBj-sCMpRCvX-79" value="Affiliated" style="shape=rhombus;perimeter=rhombusPerimeter;whiteSpace=wrap;html=1;align=center;" vertex="1" parent="1">
          <mxGeometry x="360" y="500" width="120" height="60" as="geometry" />
        </mxCell>
        <mxCell id="6nLnpNQeCBj-sCMpRCvX-80" value="" style="endArrow=none;html=1;rounded=0;exitX=1;exitY=0.5;exitDx=0;exitDy=0;entryX=0;entryY=0.5;entryDx=0;entryDy=0;" edge="1" parent="1" source="6nLnpNQeCBj-sCMpRCvX-13" target="6nLnpNQeCBj-sCMpRCvX-79">
          <mxGeometry relative="1" as="geometry">
            <mxPoint x="650" y="480" as="sourcePoint" />
            <mxPoint x="810" y="480" as="targetPoint" />
          </mxGeometry>
        </mxCell>
        <mxCell id="6nLnpNQeCBj-sCMpRCvX-81" value="N" style="resizable=0;html=1;align=right;verticalAlign=bottom;" connectable="0" vertex="1" parent="6nLnpNQeCBj-sCMpRCvX-80">
          <mxGeometry x="1" relative="1" as="geometry" />
        </mxCell>
        <mxCell id="6nLnpNQeCBj-sCMpRCvX-84" value="" style="endArrow=none;html=1;rounded=0;exitX=0;exitY=0.5;exitDx=0;exitDy=0;entryX=1;entryY=0.5;entryDx=0;entryDy=0;" edge="1" parent="1" source="6nLnpNQeCBj-sCMpRCvX-22" target="6nLnpNQeCBj-sCMpRCvX-79">
          <mxGeometry relative="1" as="geometry">
            <mxPoint x="650" y="480" as="sourcePoint" />
            <mxPoint x="810" y="480" as="targetPoint" />
          </mxGeometry>
        </mxCell>
        <mxCell id="6nLnpNQeCBj-sCMpRCvX-85" value="1" style="resizable=0;html=1;align=right;verticalAlign=bottom;" connectable="0" vertex="1" parent="6nLnpNQeCBj-sCMpRCvX-84">
          <mxGeometry x="1" relative="1" as="geometry">
            <mxPoint x="14" y="3" as="offset" />
          </mxGeometry>
        </mxCell>
        <mxCell id="6nLnpNQeCBj-sCMpRCvX-86" value="Has" style="shape=rhombus;perimeter=rhombusPerimeter;whiteSpace=wrap;html=1;align=center;" vertex="1" parent="1">
          <mxGeometry x="120" y="600" width="120" height="60" as="geometry" />
        </mxCell>
        <mxCell id="6nLnpNQeCBj-sCMpRCvX-87" value="" style="endArrow=none;html=1;rounded=0;exitX=0.5;exitY=0;exitDx=0;exitDy=0;entryX=0.5;entryY=1;entryDx=0;entryDy=0;" edge="1" parent="1" source="6nLnpNQeCBj-sCMpRCvX-52" target="6nLnpNQeCBj-sCMpRCvX-86">
          <mxGeometry relative="1" as="geometry">
            <mxPoint x="670" y="400" as="sourcePoint" />
            <mxPoint x="830" y="400" as="targetPoint" />
          </mxGeometry>
        </mxCell>
        <mxCell id="6nLnpNQeCBj-sCMpRCvX-88" value="1" style="resizable=0;html=1;align=right;verticalAlign=bottom;" connectable="0" vertex="1" parent="6nLnpNQeCBj-sCMpRCvX-87">
          <mxGeometry x="1" relative="1" as="geometry">
            <mxPoint x="-5" y="16" as="offset" />
          </mxGeometry>
        </mxCell>
        <mxCell id="6nLnpNQeCBj-sCMpRCvX-89" value="" style="shape=link;html=1;rounded=0;exitX=0.5;exitY=1;exitDx=0;exitDy=0;entryX=0.5;entryY=0;entryDx=0;entryDy=0;" edge="1" parent="1" source="6nLnpNQeCBj-sCMpRCvX-13" target="6nLnpNQeCBj-sCMpRCvX-86">
          <mxGeometry relative="1" as="geometry">
            <mxPoint x="670" y="400" as="sourcePoint" />
            <mxPoint x="830" y="400" as="targetPoint" />
          </mxGeometry>
        </mxCell>
        <mxCell id="6nLnpNQeCBj-sCMpRCvX-90" value="N" style="resizable=0;html=1;align=right;verticalAlign=bottom;" connectable="0" vertex="1" parent="6nLnpNQeCBj-sCMpRCvX-89">
          <mxGeometry x="1" relative="1" as="geometry">
            <mxPoint x="-6" y="-2" as="offset" />
          </mxGeometry>
        </mxCell>
        <mxCell id="6nLnpNQeCBj-sCMpRCvX-91" value="Id" style="ellipse;whiteSpace=wrap;html=1;align=center;fontStyle=4;" vertex="1" parent="1">
          <mxGeometry x="10" y="730" width="100" height="40" as="geometry" />
        </mxCell>
        <mxCell id="6nLnpNQeCBj-sCMpRCvX-92" value="name" style="ellipse;whiteSpace=wrap;html=1;align=center;" vertex="1" parent="1">
          <mxGeometry x="130" y="800" width="100" height="40" as="geometry" />
        </mxCell>
        <mxCell id="6nLnpNQeCBj-sCMpRCvX-93" value="" style="endArrow=none;html=1;rounded=0;exitX=1;exitY=0.5;exitDx=0;exitDy=0;entryX=0;entryY=0.5;entryDx=0;entryDy=0;" edge="1" parent="1" source="6nLnpNQeCBj-sCMpRCvX-91" target="6nLnpNQeCBj-sCMpRCvX-52">
          <mxGeometry relative="1" as="geometry">
            <mxPoint x="680" y="610" as="sourcePoint" />
            <mxPoint x="840" y="610" as="targetPoint" />
          </mxGeometry>
        </mxCell>
        <mxCell id="6nLnpNQeCBj-sCMpRCvX-94" value="" style="endArrow=none;html=1;rounded=0;exitX=0.5;exitY=1;exitDx=0;exitDy=0;entryX=0.5;entryY=0;entryDx=0;entryDy=0;" edge="1" parent="1" source="6nLnpNQeCBj-sCMpRCvX-52" target="6nLnpNQeCBj-sCMpRCvX-92">
          <mxGeometry relative="1" as="geometry">
            <mxPoint x="680" y="610" as="sourcePoint" />
            <mxPoint x="840" y="610" as="targetPoint" />
          </mxGeometry>
        </mxCell>
      </root>
    </mxGraphModel>
  </diagram>
</mxfile>
